<mxfile host="app.diagrams.net" agent="Mozilla/5.0 (Windows NT 10.0; Win64; x64) AppleWebKit/537.36 (KHTML, like Gecko) Chrome/134.0.0.0 Safari/537.36" version="26.2.13">
  <diagram name="Page-1" id="9TfbhumZKOwv8vjmnpY6">
    <mxGraphModel dx="1239" dy="737" grid="1" gridSize="10" guides="1" tooltips="1" connect="1" arrows="1" fold="1" page="1" pageScale="1" pageWidth="850" pageHeight="1100" background="#ffffff" math="0" shadow="0">
      <root>
        <mxCell id="0" />
        <mxCell id="1" parent="0" />
        <mxCell id="gF07o2XM8CqkStnafHHP-1" value="&lt;h1 style=&quot;margin-top: 0px;&quot;&gt;Basic CRUD (Create, Read, Update, Delete) in CRUD Form Module&lt;/h1&gt;" style="text;html=1;whiteSpace=wrap;overflow=hidden;rounded=0;" parent="1" vertex="1">
          <mxGeometry x="10" y="10" width="950" height="40" as="geometry" />
        </mxCell>
        <mxCell id="gF07o2XM8CqkStnafHHP-4" value="Related Files:" style="whiteSpace=wrap;html=1;aspect=fixed;" parent="1" vertex="1">
          <mxGeometry x="10" y="50" width="50" height="50" as="geometry" />
        </mxCell>
        <mxCell id="gF07o2XM8CqkStnafHHP-5" value="" style="swimlane;startSize=0;" parent="1" vertex="1">
          <mxGeometry x="60" y="50" width="160" height="50" as="geometry">
            <mxRectangle x="60" y="50" width="50" height="40" as="alternateBounds" />
          </mxGeometry>
        </mxCell>
        <mxCell id="gF07o2XM8CqkStnafHHP-9" value="&lt;a href=&quot;https://github.com/macglencoe/EmporiumWebsite/blob/cms/components/crudForm.js&quot;&gt;components/crudForm.js&lt;/a&gt;" style="shape=note;whiteSpace=wrap;html=1;backgroundOutline=1;darkOpacity=0.05;size=13;" parent="gF07o2XM8CqkStnafHHP-5" vertex="1">
          <mxGeometry x="5" y="10" width="150" height="30" as="geometry" />
        </mxCell>
        <mxCell id="gF07o2XM8CqkStnafHHP-16" value="CRUD Form Module" style="swimlane;whiteSpace=wrap;html=1;" parent="1" vertex="1">
          <mxGeometry x="10" y="110" width="940" height="640" as="geometry">
            <mxRectangle x="10" y="210" width="140" height="30" as="alternateBounds" />
          </mxGeometry>
        </mxCell>
        <mxCell id="gF07o2XM8CqkStnafHHP-33" value="Props" style="swimlane;fontStyle=1;align=center;verticalAlign=top;childLayout=stackLayout;horizontal=1;startSize=26;horizontalStack=0;resizeParent=1;resizeParentMax=0;resizeLast=0;collapsible=1;marginBottom=0;whiteSpace=wrap;html=1;" parent="gF07o2XM8CqkStnafHHP-16" vertex="1">
          <mxGeometry y="30" width="250" height="324" as="geometry" />
        </mxCell>
        <mxCell id="gF07o2XM8CqkStnafHHP-34" value="Data Fields (definition of fields): object" style="text;strokeColor=none;fillColor=none;align=left;verticalAlign=top;spacingLeft=4;spacingRight=4;overflow=hidden;rotatable=0;points=[[0,0.5],[1,0.5]];portConstraint=eastwest;whiteSpace=wrap;html=1;" parent="gF07o2XM8CqkStnafHHP-33" vertex="1">
          <mxGeometry y="26" width="250" height="26" as="geometry" />
        </mxCell>
        <mxCell id="gF07o2XM8CqkStnafHHP-35" value="" style="line;strokeWidth=1;fillColor=none;align=left;verticalAlign=middle;spacingTop=-1;spacingLeft=3;spacingRight=3;rotatable=0;labelPosition=right;points=[];portConstraint=eastwest;strokeColor=inherit;" parent="gF07o2XM8CqkStnafHHP-33" vertex="1">
          <mxGeometry y="52" width="250" height="8" as="geometry" />
        </mxCell>
        <mxCell id="gF07o2XM8CqkStnafHHP-38" value="Original Data: object" style="text;strokeColor=none;fillColor=none;align=left;verticalAlign=top;spacingLeft=4;spacingRight=4;overflow=hidden;rotatable=0;points=[[0,0.5],[1,0.5]];portConstraint=eastwest;whiteSpace=wrap;html=1;" parent="gF07o2XM8CqkStnafHHP-33" vertex="1">
          <mxGeometry y="60" width="250" height="26" as="geometry" />
        </mxCell>
        <mxCell id="gF07o2XM8CqkStnafHHP-39" value="" style="line;strokeWidth=1;fillColor=none;align=left;verticalAlign=middle;spacingTop=-1;spacingLeft=3;spacingRight=3;rotatable=0;labelPosition=right;points=[];portConstraint=eastwest;strokeColor=inherit;" parent="gF07o2XM8CqkStnafHHP-33" vertex="1">
          <mxGeometry y="86" width="250" height="8" as="geometry" />
        </mxCell>
        <mxCell id="gF07o2XM8CqkStnafHHP-36" value="Pull All Local Data: method" style="text;strokeColor=none;fillColor=none;align=left;verticalAlign=top;spacingLeft=4;spacingRight=4;overflow=hidden;rotatable=0;points=[[0,0.5],[1,0.5]];portConstraint=eastwest;whiteSpace=wrap;html=1;" parent="gF07o2XM8CqkStnafHHP-33" vertex="1">
          <mxGeometry y="94" width="250" height="26" as="geometry" />
        </mxCell>
        <mxCell id="gF07o2XM8CqkStnafHHP-40" value="" style="line;strokeWidth=1;fillColor=none;align=left;verticalAlign=middle;spacingTop=-1;spacingLeft=3;spacingRight=3;rotatable=0;labelPosition=right;points=[];portConstraint=eastwest;strokeColor=inherit;" parent="gF07o2XM8CqkStnafHHP-33" vertex="1">
          <mxGeometry y="120" width="250" height="8" as="geometry" />
        </mxCell>
        <mxCell id="gF07o2XM8CqkStnafHHP-41" value="Pull current cigar from Local Data: method" style="text;strokeColor=none;fillColor=none;align=left;verticalAlign=top;spacingLeft=4;spacingRight=4;overflow=hidden;rotatable=0;points=[[0,0.5],[1,0.5]];portConstraint=eastwest;whiteSpace=wrap;html=1;" parent="gF07o2XM8CqkStnafHHP-33" vertex="1">
          <mxGeometry y="128" width="250" height="26" as="geometry" />
        </mxCell>
        <mxCell id="gF07o2XM8CqkStnafHHP-42" value="" style="line;strokeWidth=1;fillColor=none;align=left;verticalAlign=middle;spacingTop=-1;spacingLeft=3;spacingRight=3;rotatable=0;labelPosition=right;points=[];portConstraint=eastwest;strokeColor=inherit;" parent="gF07o2XM8CqkStnafHHP-33" vertex="1">
          <mxGeometry y="154" width="250" height="8" as="geometry" />
        </mxCell>
        <mxCell id="gF07o2XM8CqkStnafHHP-43" value="Generate Slug: method" style="text;strokeColor=none;fillColor=none;align=left;verticalAlign=top;spacingLeft=4;spacingRight=4;overflow=hidden;rotatable=0;points=[[0,0.5],[1,0.5]];portConstraint=eastwest;whiteSpace=wrap;html=1;" parent="gF07o2XM8CqkStnafHHP-33" vertex="1">
          <mxGeometry y="162" width="250" height="26" as="geometry" />
        </mxCell>
        <mxCell id="gF07o2XM8CqkStnafHHP-44" value="" style="line;strokeWidth=1;fillColor=none;align=left;verticalAlign=middle;spacingTop=-1;spacingLeft=3;spacingRight=3;rotatable=0;labelPosition=right;points=[];portConstraint=eastwest;strokeColor=inherit;" parent="gF07o2XM8CqkStnafHHP-33" vertex="1">
          <mxGeometry y="188" width="250" height="8" as="geometry" />
        </mxCell>
        <mxCell id="gF07o2XM8CqkStnafHHP-45" value="Slug Uniqueness Check: method" style="text;strokeColor=none;fillColor=none;align=left;verticalAlign=top;spacingLeft=4;spacingRight=4;overflow=hidden;rotatable=0;points=[[0,0.5],[1,0.5]];portConstraint=eastwest;whiteSpace=wrap;html=1;" parent="gF07o2XM8CqkStnafHHP-33" vertex="1">
          <mxGeometry y="196" width="250" height="26" as="geometry" />
        </mxCell>
        <mxCell id="gF07o2XM8CqkStnafHHP-46" value="" style="line;strokeWidth=1;fillColor=none;align=left;verticalAlign=middle;spacingTop=-1;spacingLeft=3;spacingRight=3;rotatable=0;labelPosition=right;points=[];portConstraint=eastwest;strokeColor=inherit;" parent="gF07o2XM8CqkStnafHHP-33" vertex="1">
          <mxGeometry y="222" width="250" height="8" as="geometry" />
        </mxCell>
        <mxCell id="gF07o2XM8CqkStnafHHP-47" value="Submit Changes: method" style="text;strokeColor=none;fillColor=none;align=left;verticalAlign=top;spacingLeft=4;spacingRight=4;overflow=hidden;rotatable=0;points=[[0,0.5],[1,0.5]];portConstraint=eastwest;whiteSpace=wrap;html=1;" parent="gF07o2XM8CqkStnafHHP-33" vertex="1">
          <mxGeometry y="230" width="250" height="26" as="geometry" />
        </mxCell>
        <mxCell id="gF07o2XM8CqkStnafHHP-48" value="" style="line;strokeWidth=1;fillColor=none;align=left;verticalAlign=middle;spacingTop=-1;spacingLeft=3;spacingRight=3;rotatable=0;labelPosition=right;points=[];portConstraint=eastwest;strokeColor=inherit;" parent="gF07o2XM8CqkStnafHHP-33" vertex="1">
          <mxGeometry y="256" width="250" height="8" as="geometry" />
        </mxCell>
        <mxCell id="gF07o2XM8CqkStnafHHP-49" value="On Change: event method" style="text;strokeColor=none;fillColor=none;align=left;verticalAlign=top;spacingLeft=4;spacingRight=4;overflow=hidden;rotatable=0;points=[[0,0.5],[1,0.5]];portConstraint=eastwest;whiteSpace=wrap;html=1;" parent="gF07o2XM8CqkStnafHHP-33" vertex="1">
          <mxGeometry y="264" width="250" height="26" as="geometry" />
        </mxCell>
        <mxCell id="gF07o2XM8CqkStnafHHP-50" value="" style="line;strokeWidth=1;fillColor=none;align=left;verticalAlign=middle;spacingTop=-1;spacingLeft=3;spacingRight=3;rotatable=0;labelPosition=right;points=[];portConstraint=eastwest;strokeColor=inherit;" parent="gF07o2XM8CqkStnafHHP-33" vertex="1">
          <mxGeometry y="290" width="250" height="8" as="geometry" />
        </mxCell>
        <mxCell id="gF07o2XM8CqkStnafHHP-51" value="On Revert: event method" style="text;strokeColor=none;fillColor=none;align=left;verticalAlign=top;spacingLeft=4;spacingRight=4;overflow=hidden;rotatable=0;points=[[0,0.5],[1,0.5]];portConstraint=eastwest;whiteSpace=wrap;html=1;" parent="gF07o2XM8CqkStnafHHP-33" vertex="1">
          <mxGeometry y="298" width="250" height="26" as="geometry" />
        </mxCell>
        <mxCell id="qtyGDBOndFJ6fSlMXyA5-16" value="Error Message" style="edgeStyle=orthogonalEdgeStyle;rounded=0;orthogonalLoop=1;jettySize=auto;html=1;entryX=0.5;entryY=0;entryDx=0;entryDy=0;" edge="1" parent="gF07o2XM8CqkStnafHHP-16" source="qtyGDBOndFJ6fSlMXyA5-3" target="qtyGDBOndFJ6fSlMXyA5-4">
          <mxGeometry relative="1" as="geometry" />
        </mxCell>
        <mxCell id="qtyGDBOndFJ6fSlMXyA5-3" value="Validation Event" style="swimlane;whiteSpace=wrap;html=1;fillColor=#f8cecc;strokeColor=#b85450;" vertex="1" parent="gF07o2XM8CqkStnafHHP-16">
          <mxGeometry x="730" y="37" width="200" height="300" as="geometry" />
        </mxCell>
        <mxCell id="qtyGDBOndFJ6fSlMXyA5-5" value="Event Parameters" style="swimlane;fontStyle=1;align=center;verticalAlign=top;childLayout=stackLayout;horizontal=1;startSize=26;horizontalStack=0;resizeParent=1;resizeParentMax=0;resizeLast=0;collapsible=1;marginBottom=0;whiteSpace=wrap;html=1;" vertex="1" parent="qtyGDBOndFJ6fSlMXyA5-3">
          <mxGeometry y="30" width="160" height="86" as="geometry" />
        </mxCell>
        <mxCell id="qtyGDBOndFJ6fSlMXyA5-6" value="Field Name" style="text;strokeColor=none;fillColor=none;align=left;verticalAlign=top;spacingLeft=4;spacingRight=4;overflow=hidden;rotatable=0;points=[[0,0.5],[1,0.5]];portConstraint=eastwest;whiteSpace=wrap;html=1;" vertex="1" parent="qtyGDBOndFJ6fSlMXyA5-5">
          <mxGeometry y="26" width="160" height="26" as="geometry" />
        </mxCell>
        <mxCell id="qtyGDBOndFJ6fSlMXyA5-7" value="" style="line;strokeWidth=1;fillColor=none;align=left;verticalAlign=middle;spacingTop=-1;spacingLeft=3;spacingRight=3;rotatable=0;labelPosition=right;points=[];portConstraint=eastwest;strokeColor=inherit;" vertex="1" parent="qtyGDBOndFJ6fSlMXyA5-5">
          <mxGeometry y="52" width="160" height="8" as="geometry" />
        </mxCell>
        <mxCell id="qtyGDBOndFJ6fSlMXyA5-8" value="Value" style="text;strokeColor=none;fillColor=none;align=left;verticalAlign=top;spacingLeft=4;spacingRight=4;overflow=hidden;rotatable=0;points=[[0,0.5],[1,0.5]];portConstraint=eastwest;whiteSpace=wrap;html=1;" vertex="1" parent="qtyGDBOndFJ6fSlMXyA5-5">
          <mxGeometry y="60" width="160" height="26" as="geometry" />
        </mxCell>
        <mxCell id="qtyGDBOndFJ6fSlMXyA5-10" value="Validate against field definition" style="rounded=1;whiteSpace=wrap;html=1;absoluteArcSize=1;arcSize=14;strokeWidth=2;" vertex="1" parent="qtyGDBOndFJ6fSlMXyA5-3">
          <mxGeometry x="50" y="140" width="100" height="50" as="geometry" />
        </mxCell>
        <mxCell id="qtyGDBOndFJ6fSlMXyA5-11" style="edgeStyle=orthogonalEdgeStyle;rounded=0;orthogonalLoop=1;jettySize=auto;html=1;entryX=1;entryY=0.5;entryDx=0;entryDy=0;exitX=1;exitY=0.5;exitDx=0;exitDy=0;" edge="1" parent="qtyGDBOndFJ6fSlMXyA5-3" source="qtyGDBOndFJ6fSlMXyA5-6" target="qtyGDBOndFJ6fSlMXyA5-10">
          <mxGeometry relative="1" as="geometry">
            <Array as="points">
              <mxPoint x="190" y="69" />
              <mxPoint x="190" y="165" />
            </Array>
          </mxGeometry>
        </mxCell>
        <mxCell id="qtyGDBOndFJ6fSlMXyA5-13" style="edgeStyle=orthogonalEdgeStyle;rounded=0;orthogonalLoop=1;jettySize=auto;html=1;entryX=1;entryY=0.5;entryDx=0;entryDy=0;exitX=1;exitY=0.5;exitDx=0;exitDy=0;" edge="1" parent="qtyGDBOndFJ6fSlMXyA5-3" source="qtyGDBOndFJ6fSlMXyA5-8" target="qtyGDBOndFJ6fSlMXyA5-10">
          <mxGeometry relative="1" as="geometry" />
        </mxCell>
        <mxCell id="qtyGDBOndFJ6fSlMXyA5-14" value="Return: error message or false" style="strokeWidth=2;html=1;shape=mxgraph.flowchart.terminator;whiteSpace=wrap;" vertex="1" parent="qtyGDBOndFJ6fSlMXyA5-3">
          <mxGeometry x="10" y="220" width="180" height="60" as="geometry" />
        </mxCell>
        <mxCell id="qtyGDBOndFJ6fSlMXyA5-15" style="edgeStyle=orthogonalEdgeStyle;rounded=0;orthogonalLoop=1;jettySize=auto;html=1;entryX=0.5;entryY=0;entryDx=0;entryDy=0;entryPerimeter=0;" edge="1" parent="qtyGDBOndFJ6fSlMXyA5-3" source="qtyGDBOndFJ6fSlMXyA5-10" target="qtyGDBOndFJ6fSlMXyA5-14">
          <mxGeometry relative="1" as="geometry" />
        </mxCell>
        <mxCell id="qtyGDBOndFJ6fSlMXyA5-4" value="Errors" style="shape=parallelogram;html=1;strokeWidth=2;perimeter=parallelogramPerimeter;whiteSpace=wrap;rounded=1;arcSize=12;size=0.23;" vertex="1" parent="gF07o2XM8CqkStnafHHP-16">
          <mxGeometry x="760" y="435" width="140" height="70" as="geometry" />
        </mxCell>
        <mxCell id="qtyGDBOndFJ6fSlMXyA5-9" style="edgeStyle=orthogonalEdgeStyle;rounded=0;orthogonalLoop=1;jettySize=auto;html=1;" edge="1" parent="gF07o2XM8CqkStnafHHP-16" source="gF07o2XM8CqkStnafHHP-34" target="qtyGDBOndFJ6fSlMXyA5-10">
          <mxGeometry relative="1" as="geometry">
            <mxPoint x="619.9999999999998" y="490" as="targetPoint" />
            <Array as="points">
              <mxPoint x="710" y="69" />
              <mxPoint x="710" y="200" />
            </Array>
          </mxGeometry>
        </mxCell>
        <mxCell id="qtyGDBOndFJ6fSlMXyA5-20" style="edgeStyle=orthogonalEdgeStyle;rounded=0;orthogonalLoop=1;jettySize=auto;html=1;entryX=0.723;entryY=-0.007;entryDx=0;entryDy=0;entryPerimeter=0;" edge="1" parent="gF07o2XM8CqkStnafHHP-16" source="qtyGDBOndFJ6fSlMXyA5-17" target="qtyGDBOndFJ6fSlMXyA5-19">
          <mxGeometry relative="1" as="geometry" />
        </mxCell>
        <mxCell id="qtyGDBOndFJ6fSlMXyA5-17" value="Map Fields to Inputs" style="strokeWidth=2;html=1;shape=mxgraph.flowchart.loop_limit;whiteSpace=wrap;" vertex="1" parent="gF07o2XM8CqkStnafHHP-16">
          <mxGeometry x="580" y="90" width="110" height="60" as="geometry" />
        </mxCell>
        <mxCell id="qtyGDBOndFJ6fSlMXyA5-19" value="Field Input Component" style="swimlane;whiteSpace=wrap;html=1;" vertex="1" parent="gF07o2XM8CqkStnafHHP-16">
          <mxGeometry x="490" y="180" width="200" height="250" as="geometry" />
        </mxCell>
        <mxCell id="qtyGDBOndFJ6fSlMXyA5-1" value="User Input" style="html=1;strokeWidth=2;shape=manualInput;whiteSpace=wrap;rounded=1;size=16;arcSize=11;" vertex="1" parent="qtyGDBOndFJ6fSlMXyA5-19">
          <mxGeometry x="50" y="97" width="100" height="60" as="geometry" />
        </mxCell>
        <mxCell id="qtyGDBOndFJ6fSlMXyA5-21" value="Revert Button" style="verticalLabelPosition=middle;verticalAlign=middle;html=1;shape=trapezoid;perimeter=trapezoidPerimeter;whiteSpace=wrap;size=0.23;arcSize=10;flipV=1;labelPosition=center;align=center;" vertex="1" parent="qtyGDBOndFJ6fSlMXyA5-19">
          <mxGeometry x="50" y="174" width="100" height="60" as="geometry" />
        </mxCell>
        <mxCell id="qtyGDBOndFJ6fSlMXyA5-34" value="Value" style="shape=parallelogram;html=1;strokeWidth=2;perimeter=parallelogramPerimeter;whiteSpace=wrap;rounded=1;arcSize=12;size=0.23;" vertex="1" parent="qtyGDBOndFJ6fSlMXyA5-19">
          <mxGeometry x="40" y="67" width="120" height="30" as="geometry" />
        </mxCell>
        <mxCell id="qtyGDBOndFJ6fSlMXyA5-35" value="Original Value" style="shape=parallelogram;html=1;strokeWidth=2;perimeter=parallelogramPerimeter;whiteSpace=wrap;rounded=1;arcSize=12;size=0.23;" vertex="1" parent="qtyGDBOndFJ6fSlMXyA5-19">
          <mxGeometry x="40" y="30" width="120" height="30" as="geometry" />
        </mxCell>
        <mxCell id="qtyGDBOndFJ6fSlMXyA5-27" value="" style="edgeStyle=orthogonalEdgeStyle;rounded=0;orthogonalLoop=1;jettySize=auto;html=1;entryX=1;entryY=0.5;entryDx=0;entryDy=0;" edge="1" parent="gF07o2XM8CqkStnafHHP-16" source="qtyGDBOndFJ6fSlMXyA5-1" target="gF07o2XM8CqkStnafHHP-49">
          <mxGeometry relative="1" as="geometry">
            <mxPoint x="550" y="417" as="sourcePoint" />
            <mxPoint x="475" y="307" as="targetPoint" />
          </mxGeometry>
        </mxCell>
        <mxCell id="qtyGDBOndFJ6fSlMXyA5-28" value="Validation Event" style="shape=process;whiteSpace=wrap;html=1;backgroundOutline=1;fillColor=#f8cecc;strokeColor=#b85450;" vertex="1" parent="gF07o2XM8CqkStnafHHP-16">
          <mxGeometry x="530" y="440" width="120" height="60" as="geometry" />
        </mxCell>
        <mxCell id="qtyGDBOndFJ6fSlMXyA5-33" style="edgeStyle=orthogonalEdgeStyle;rounded=0;orthogonalLoop=1;jettySize=auto;html=1;entryX=0.003;entryY=0.6;entryDx=0;entryDy=0;entryPerimeter=0;" edge="1" parent="gF07o2XM8CqkStnafHHP-16" source="gF07o2XM8CqkStnafHHP-34" target="qtyGDBOndFJ6fSlMXyA5-17">
          <mxGeometry relative="1" as="geometry">
            <Array as="points">
              <mxPoint x="550" y="69" />
              <mxPoint x="550" y="126" />
            </Array>
          </mxGeometry>
        </mxCell>
        <mxCell id="qtyGDBOndFJ6fSlMXyA5-37" style="edgeStyle=orthogonalEdgeStyle;rounded=0;orthogonalLoop=1;jettySize=auto;html=1;entryX=0;entryY=0.5;entryDx=0;entryDy=0;" edge="1" parent="gF07o2XM8CqkStnafHHP-16" source="gF07o2XM8CqkStnafHHP-38" target="qtyGDBOndFJ6fSlMXyA5-35">
          <mxGeometry relative="1" as="geometry">
            <Array as="points">
              <mxPoint x="470" y="103" />
              <mxPoint x="470" y="225" />
            </Array>
          </mxGeometry>
        </mxCell>
        <mxCell id="qtyGDBOndFJ6fSlMXyA5-38" style="edgeStyle=elbowEdgeStyle;rounded=0;orthogonalLoop=1;jettySize=auto;html=1;entryX=0;entryY=0.5;entryDx=0;entryDy=0;startArrow=none;startFill=0;" edge="1" parent="gF07o2XM8CqkStnafHHP-16" source="gF07o2XM8CqkStnafHHP-41" target="qtyGDBOndFJ6fSlMXyA5-34">
          <mxGeometry relative="1" as="geometry">
            <Array as="points">
              <mxPoint x="460" y="220" />
            </Array>
          </mxGeometry>
        </mxCell>
        <mxCell id="qtyGDBOndFJ6fSlMXyA5-39" style="edgeStyle=orthogonalEdgeStyle;rounded=0;orthogonalLoop=1;jettySize=auto;html=1;entryX=1;entryY=0.5;entryDx=0;entryDy=0;" edge="1" parent="gF07o2XM8CqkStnafHHP-16" source="qtyGDBOndFJ6fSlMXyA5-21" target="gF07o2XM8CqkStnafHHP-51">
          <mxGeometry relative="1" as="geometry">
            <Array as="points">
              <mxPoint x="430" y="370" />
              <mxPoint x="430" y="341" />
            </Array>
          </mxGeometry>
        </mxCell>
        <mxCell id="qtyGDBOndFJ6fSlMXyA5-41" style="edgeStyle=orthogonalEdgeStyle;rounded=0;orthogonalLoop=1;jettySize=auto;html=1;entryX=0;entryY=0.5;entryDx=0;entryDy=0;fillColor=#f8cecc;strokeColor=#b85450;strokeWidth=2;" edge="1" parent="gF07o2XM8CqkStnafHHP-16" source="qtyGDBOndFJ6fSlMXyA5-1" target="qtyGDBOndFJ6fSlMXyA5-28">
          <mxGeometry relative="1" as="geometry">
            <Array as="points">
              <mxPoint x="470" y="320" />
              <mxPoint x="470" y="470" />
            </Array>
          </mxGeometry>
        </mxCell>
        <mxCell id="qtyGDBOndFJ6fSlMXyA5-42" style="edgeStyle=orthogonalEdgeStyle;rounded=0;orthogonalLoop=1;jettySize=auto;html=1;entryX=0;entryY=0.5;entryDx=0;entryDy=0;exitX=0;exitY=0.5;exitDx=0;exitDy=0;fillColor=#f8cecc;strokeColor=#b85450;strokeWidth=2;" edge="1" parent="gF07o2XM8CqkStnafHHP-16" source="qtyGDBOndFJ6fSlMXyA5-21" target="qtyGDBOndFJ6fSlMXyA5-28">
          <mxGeometry relative="1" as="geometry">
            <Array as="points">
              <mxPoint x="480" y="384" />
              <mxPoint x="480" y="470" />
            </Array>
          </mxGeometry>
        </mxCell>
        <mxCell id="qtyGDBOndFJ6fSlMXyA5-46" value="Submit Button" style="verticalLabelPosition=middle;verticalAlign=middle;html=1;shape=trapezoid;perimeter=trapezoidPerimeter;whiteSpace=wrap;size=0.23;arcSize=10;flipV=1;labelPosition=center;align=center;" vertex="1" parent="gF07o2XM8CqkStnafHHP-16">
          <mxGeometry x="52.5" y="555" width="115" height="60" as="geometry" />
        </mxCell>
        <mxCell id="qtyGDBOndFJ6fSlMXyA5-61" value="True" style="edgeStyle=orthogonalEdgeStyle;rounded=0;orthogonalLoop=1;jettySize=auto;html=1;entryX=0.5;entryY=1;entryDx=0;entryDy=0;fillColor=#dae8fc;strokeColor=#6c8ebf;strokeWidth=3;" edge="1" parent="gF07o2XM8CqkStnafHHP-16" source="qtyGDBOndFJ6fSlMXyA5-55" target="qtyGDBOndFJ6fSlMXyA5-60">
          <mxGeometry relative="1" as="geometry" />
        </mxCell>
        <mxCell id="qtyGDBOndFJ6fSlMXyA5-55" value="Errors are Empty" style="strokeWidth=2;html=1;shape=mxgraph.flowchart.decision;whiteSpace=wrap;" vertex="1" parent="gF07o2XM8CqkStnafHHP-16">
          <mxGeometry x="342.5" y="550" width="90" height="70" as="geometry" />
        </mxCell>
        <mxCell id="qtyGDBOndFJ6fSlMXyA5-57" style="edgeStyle=orthogonalEdgeStyle;rounded=0;orthogonalLoop=1;jettySize=auto;html=1;entryX=1;entryY=0.5;entryDx=0;entryDy=0;entryPerimeter=0;" edge="1" parent="gF07o2XM8CqkStnafHHP-16" source="qtyGDBOndFJ6fSlMXyA5-4" target="qtyGDBOndFJ6fSlMXyA5-55">
          <mxGeometry relative="1" as="geometry">
            <Array as="points">
              <mxPoint x="830" y="585" />
            </Array>
          </mxGeometry>
        </mxCell>
        <mxCell id="qtyGDBOndFJ6fSlMXyA5-60" value="Generate Slug" style="rounded=1;whiteSpace=wrap;html=1;absoluteArcSize=1;arcSize=14;strokeWidth=2;" vertex="1" parent="gF07o2XM8CqkStnafHHP-16">
          <mxGeometry x="342.5" y="470" width="90" height="40" as="geometry" />
        </mxCell>
        <mxCell id="qtyGDBOndFJ6fSlMXyA5-76" style="edgeStyle=orthogonalEdgeStyle;rounded=0;orthogonalLoop=1;jettySize=auto;html=1;entryX=1;entryY=0.5;entryDx=0;entryDy=0;startArrow=classic;startFill=1;fillColor=#d5e8d4;strokeColor=#82b366;strokeWidth=2;" edge="1" parent="gF07o2XM8CqkStnafHHP-16" source="qtyGDBOndFJ6fSlMXyA5-63" target="qtyGDBOndFJ6fSlMXyA5-75">
          <mxGeometry relative="1" as="geometry" />
        </mxCell>
        <mxCell id="qtyGDBOndFJ6fSlMXyA5-63" value="Slug is&lt;div&gt;Unique&lt;/div&gt;" style="strokeWidth=2;html=1;shape=mxgraph.flowchart.decision;whiteSpace=wrap;" vertex="1" parent="gF07o2XM8CqkStnafHHP-16">
          <mxGeometry x="342.5" y="370" width="90" height="70" as="geometry" />
        </mxCell>
        <mxCell id="qtyGDBOndFJ6fSlMXyA5-65" style="edgeStyle=orthogonalEdgeStyle;rounded=0;orthogonalLoop=1;jettySize=auto;html=1;entryX=0.5;entryY=1;entryDx=0;entryDy=0;entryPerimeter=0;strokeWidth=3;fillColor=#dae8fc;strokeColor=#6c8ebf;" edge="1" parent="gF07o2XM8CqkStnafHHP-16" source="qtyGDBOndFJ6fSlMXyA5-60" target="qtyGDBOndFJ6fSlMXyA5-63">
          <mxGeometry relative="1" as="geometry" />
        </mxCell>
        <mxCell id="qtyGDBOndFJ6fSlMXyA5-68" style="edgeStyle=orthogonalEdgeStyle;rounded=0;orthogonalLoop=1;jettySize=auto;html=1;entryX=1;entryY=0.5;entryDx=0;entryDy=0;fillColor=#dae8fc;strokeColor=#6c8ebf;strokeWidth=3;" edge="1" parent="gF07o2XM8CqkStnafHHP-16" source="qtyGDBOndFJ6fSlMXyA5-67" target="gF07o2XM8CqkStnafHHP-47">
          <mxGeometry relative="1" as="geometry" />
        </mxCell>
        <mxCell id="qtyGDBOndFJ6fSlMXyA5-67" value="Cigar Data" style="shape=parallelogram;html=1;strokeWidth=2;perimeter=parallelogramPerimeter;whiteSpace=wrap;rounded=1;arcSize=12;size=0.23;" vertex="1" parent="gF07o2XM8CqkStnafHHP-16">
          <mxGeometry x="345" y="248" width="100" height="50" as="geometry" />
        </mxCell>
        <mxCell id="qtyGDBOndFJ6fSlMXyA5-70" style="edgeStyle=orthogonalEdgeStyle;rounded=0;orthogonalLoop=1;jettySize=auto;html=1;entryX=0.5;entryY=0;entryDx=0;entryDy=0;" edge="1" parent="gF07o2XM8CqkStnafHHP-16" source="gF07o2XM8CqkStnafHHP-41" target="qtyGDBOndFJ6fSlMXyA5-67">
          <mxGeometry relative="1" as="geometry" />
        </mxCell>
        <mxCell id="qtyGDBOndFJ6fSlMXyA5-71" value="True" style="edgeStyle=orthogonalEdgeStyle;rounded=0;orthogonalLoop=1;jettySize=auto;html=1;entryX=0.428;entryY=0.943;entryDx=0;entryDy=0;entryPerimeter=0;fillColor=#dae8fc;strokeColor=#6c8ebf;strokeWidth=3;" edge="1" parent="gF07o2XM8CqkStnafHHP-16" source="qtyGDBOndFJ6fSlMXyA5-63" target="qtyGDBOndFJ6fSlMXyA5-67">
          <mxGeometry x="-0.7338" y="-2" relative="1" as="geometry">
            <mxPoint as="offset" />
          </mxGeometry>
        </mxCell>
        <mxCell id="qtyGDBOndFJ6fSlMXyA5-73" value="Generate Slug" style="shape=process;whiteSpace=wrap;html=1;backgroundOutline=1;" vertex="1" parent="gF07o2XM8CqkStnafHHP-16">
          <mxGeometry x="50" y="460" width="120" height="60" as="geometry" />
        </mxCell>
        <mxCell id="qtyGDBOndFJ6fSlMXyA5-74" style="edgeStyle=orthogonalEdgeStyle;rounded=0;orthogonalLoop=1;jettySize=auto;html=1;entryX=1.028;entryY=0.507;entryDx=0;entryDy=0;entryPerimeter=0;startArrow=classic;startFill=1;fillColor=#d5e8d4;strokeColor=#82b366;strokeWidth=2;" edge="1" parent="gF07o2XM8CqkStnafHHP-16" source="qtyGDBOndFJ6fSlMXyA5-60" target="qtyGDBOndFJ6fSlMXyA5-73">
          <mxGeometry relative="1" as="geometry" />
        </mxCell>
        <mxCell id="qtyGDBOndFJ6fSlMXyA5-75" value="Slug Uniqueness Check" style="shape=process;whiteSpace=wrap;html=1;backgroundOutline=1;" vertex="1" parent="gF07o2XM8CqkStnafHHP-16">
          <mxGeometry x="50" y="375" width="120" height="60" as="geometry" />
        </mxCell>
        <mxCell id="qtyGDBOndFJ6fSlMXyA5-77" value="" style="verticalLabelPosition=bottom;verticalAlign=top;html=1;shape=mxgraph.flowchart.on-page_reference;fillColor=#d5e8d4;strokeColor=#82b366;" vertex="1" parent="gF07o2XM8CqkStnafHHP-16">
          <mxGeometry x="300" y="190" width="30" height="30" as="geometry" />
        </mxCell>
        <mxCell id="qtyGDBOndFJ6fSlMXyA5-78" value="" style="verticalLabelPosition=bottom;verticalAlign=top;html=1;shape=mxgraph.flowchart.on-page_reference;fillColor=#d5e8d4;strokeColor=#82b366;" vertex="1" parent="gF07o2XM8CqkStnafHHP-16">
          <mxGeometry x="300" y="224" width="30" height="30" as="geometry" />
        </mxCell>
        <mxCell id="qtyGDBOndFJ6fSlMXyA5-79" style="edgeStyle=orthogonalEdgeStyle;rounded=0;orthogonalLoop=1;jettySize=auto;html=1;entryX=0;entryY=0.5;entryDx=0;entryDy=0;entryPerimeter=0;startArrow=classic;startFill=1;fillColor=#d5e8d4;strokeColor=#82b366;strokeWidth=2;" edge="1" parent="gF07o2XM8CqkStnafHHP-16" source="gF07o2XM8CqkStnafHHP-43" target="qtyGDBOndFJ6fSlMXyA5-77">
          <mxGeometry relative="1" as="geometry" />
        </mxCell>
        <mxCell id="qtyGDBOndFJ6fSlMXyA5-80" style="edgeStyle=orthogonalEdgeStyle;rounded=0;orthogonalLoop=1;jettySize=auto;html=1;entryX=0;entryY=0.5;entryDx=0;entryDy=0;entryPerimeter=0;startArrow=classic;startFill=1;fillColor=#d5e8d4;strokeColor=#82b366;strokeWidth=2;" edge="1" parent="gF07o2XM8CqkStnafHHP-16" source="gF07o2XM8CqkStnafHHP-45" target="qtyGDBOndFJ6fSlMXyA5-78">
          <mxGeometry relative="1" as="geometry" />
        </mxCell>
        <mxCell id="qtyGDBOndFJ6fSlMXyA5-81" style="edgeStyle=orthogonalEdgeStyle;rounded=0;orthogonalLoop=1;jettySize=auto;html=1;entryX=0;entryY=0.5;entryDx=0;entryDy=0;entryPerimeter=0;" edge="1" parent="gF07o2XM8CqkStnafHHP-16" source="qtyGDBOndFJ6fSlMXyA5-46" target="qtyGDBOndFJ6fSlMXyA5-55">
          <mxGeometry relative="1" as="geometry" />
        </mxCell>
      </root>
    </mxGraphModel>
  </diagram>
</mxfile>
